<svg width="263" height="70" viewBox="0 0 263 70" fill="none" xmlns="http://www.w3.org/2000/svg">
<g clip-path="url(#clip0_478_1675)">
<path d="M98.1916 41.8192C98.1916 46.6025 94.5632 49.3208 88.8582 49.3208H76.7657V22.9308H88.1874C94.2424 22.9308 97.3224 25.6492 97.3224 30.1817C97.3224 32.1008 96.6691 34.6033 94.2774 35.6883C96.8499 36.7033 98.1916 39.1708 98.1916 41.8192ZM87.6916 28.4025H83.2291V33.6933H87.6916C89.9024 33.6933 90.7716 32.3575 90.7716 30.975C90.7716 29.5925 89.8908 28.4025 87.6799 28.4025H87.6916ZM91.4249 41.3467C91.4249 39.5967 90.1533 38.6633 88.3449 38.6633H83.2291V43.8492H88.3449C90.1416 43.8492 91.4132 43.085 91.4132 41.3467H91.4249Z" fill="#0061FF"/>
<path d="M100.98 30.1817H107.362V49.3208H100.98V30.1817ZM101.091 22.1317H107.146V27.895H101.091V22.1317Z" fill="#0061FF"/>
<path d="M117.366 49.3208H110.984V21.77H117.366V49.3208Z" fill="#0061FF"/>
<path d="M127.37 49.3208H120.988V21.77H127.37V49.3208Z" fill="#0061FF"/>
<path d="M135.962 43.12C135.962 44.4967 137.409 45.2608 138.932 45.2608C140.454 45.2608 141.183 44.8233 141.183 43.9542C141.183 43.085 140.676 42.5775 138.681 42.2042L135.181 41.475C131.267 40.6817 130.287 38.325 130.287 35.9333C130.287 32.235 134.131 29.8375 138.733 29.8375C143.843 29.8375 147.483 32.3808 147.483 36.1842H141.288C141.288 35.0175 140.203 34.265 138.716 34.265C137.228 34.265 136.616 34.8483 136.616 35.6067C136.616 36.365 137.45 36.6917 139.042 37.0533L142.449 37.8175C146.182 38.6517 147.699 40.6817 147.699 43.4C147.699 47.7108 143.616 49.7058 139.072 49.7058C133.921 49.7058 129.826 47.1333 129.826 43.1433L135.962 43.12Z" fill="#0061FF"/>
<path d="M165.829 44.3917H157.079L155.3 49.3208H148.755L158.672 22.9308H164.797L174.661 49.3208H167.538L165.829 44.3917ZM164.167 39.6667L161.542 32.0833L158.788 39.6667H164.167Z" fill="#0061FF"/>
<path d="M177.502 30.1817V28.4317C177.502 24.5875 179.17 21.7233 184.753 21.7233H188.054V26.8333H186.421C184.245 26.8333 183.883 27.8483 183.883 29.1667V30.2225H188.054V35.7292H183.883V49.3617H177.502V35.6883H174.748V30.1817H177.502Z" fill="#0061FF"/>
<path d="M203.822 30.1817V35.7642H200.701C197.732 35.7642 197.078 37.3567 197.078 39.8942V49.3208H190.708V30.1817H196.717L197.329 32.0658C197.913 31.0858 198.998 30.1817 201.103 30.1817H203.822Z" fill="#0061FF"/>
<path d="M206.178 30.1817H212.554V49.3208H206.178V30.1817ZM206.283 22.1317H212.338V27.895H206.283V22.1317Z" fill="#0061FF"/>
<path d="M225.463 35.2567C223.287 35.2567 222.092 37.1408 222.092 39.7483C222.092 42.8692 223.433 44.2458 225.282 44.2458C226.951 44.2458 227.89 43.3008 228.362 41.3292H235.106C234.307 46.69 230.439 49.7758 225.498 49.7758C219.589 49.7758 215.634 45.7858 215.634 39.7658C215.634 33.7458 219.589 29.7967 225.551 29.7967C230.626 29.7967 234.47 32.8067 235.158 38.2433H228.45C228.217 36.2367 226.986 35.2567 225.463 35.2567Z" fill="#0061FF"/>
<path d="M256.748 44.7533V49.3209H253.411C251.632 49.3209 250.22 48.7375 249.713 47.2908C248.663 48.7783 246.668 49.6825 243.914 49.6825C239.668 49.6825 236.949 47.5067 236.949 43.7383C236.949 40.1509 239.417 37.905 244.019 37.905H248.628V37.1817C248.628 35.805 247.613 34.79 245.903 34.79C244.194 34.79 242.987 35.77 242.987 37.1233H237.328C237.188 32.6608 240.828 29.8317 246.178 29.8317C249.981 29.8317 255.021 31.2842 255.021 37.3742V43.9017C255.021 44.7008 255.604 44.7708 255.966 44.7708L256.748 44.7533ZM248.581 41.8367H245.32C243.728 41.8367 243.471 42.7058 243.471 43.2833C243.471 44.45 244.486 44.7708 245.717 44.7708C247.928 44.7708 248.581 43.7558 248.581 42.4375V41.8367Z" fill="#0061FF"/>
<path fill-rule="evenodd" clip-rule="evenodd" d="M6.32234 13.09C10.2657 12.3083 10.4932 11.5033 15.9882 11.6142C20.217 11.7549 24.3429 12.955 27.9875 15.1045C31.6321 17.2539 34.6788 20.2839 36.8482 23.9167C38.5982 23.6717 39.1815 23.0767 42.5532 22.8142C42.6873 21.9742 40.2548 18.7309 39.724 17.92C39.1932 17.1092 39.8757 17.0275 38.3765 15.295C37.834 14.665 36.8773 13.685 36.749 12.8975C37.2973 13.0725 37.4723 13.8542 38.0673 14.0642C38.3366 13.7026 38.4527 13.2496 38.3905 12.8031C38.3283 12.3566 38.0927 11.9525 37.7348 11.6783C36.2882 10.8675 33.3423 12.3725 31.5165 11.3458C30.8573 10.9783 30.8573 11.2058 30.2565 10.9375C29.6557 10.6692 29.7257 10.4067 28.7923 10.5642C26.9373 10.885 28.874 13.5625 24.569 11.2933C24.044 11.0192 22.3465 10.4708 22.1073 10.2492C21.4482 9.66585 22.1073 8.27751 21.8448 7.33251C20.9815 7.07585 21.3315 7.33251 20.6782 7.38501C19.7332 7.45501 19.739 6.80168 16.8865 7.38501C15.8773 7.60085 13.3048 8.55168 12.4823 8.49335C11.4907 8.45251 11.619 7.51918 8.83067 9.98668C7.22067 11.41 8.749 10.6575 6.719 12.6L6.31067 13.0958L6.32234 13.09Z" fill="#0061FF"/>
<path fill-rule="evenodd" clip-rule="evenodd" d="M2.11658 26.7167C3.12574 28.1925 3.51658 29.4233 5.33075 30.9283C5.91408 30.52 8.71408 25.2642 15.6849 25.5733C22.5216 25.8767 24.7324 31.3542 25.4266 31.7275C26.8324 30.3158 27.2583 29.6042 29.0258 28.2275C28.8449 26.8567 25.5666 23.9517 24.0849 23.03C16.1107 18.0775 6.58491 20.5333 2.11658 26.705V26.7167Z" fill="#0061FF"/>
<path fill-rule="evenodd" clip-rule="evenodd" d="M38.1433 54.8333C40.5408 52.5 38.5924 52.6517 39.5374 50.5925C40.1208 49.2683 41.8707 48.9417 42.7807 47.8975C43.4924 47.1042 44.7232 45.045 43.8832 43.61C43.3582 42.7058 43.0316 43.1783 43.0899 41.3583C43.0899 40.4775 43.0899 39.2933 43.3932 38.6283C40.2199 38.8208 37.0699 41.545 35.8916 44.6658C35.1955 46.5896 35.1059 48.6804 35.6349 50.6567C36.2124 52.6983 37.0641 53.6025 38.1433 54.8333Z" fill="#0061FF"/>
<path fill-rule="evenodd" clip-rule="evenodd" d="M27.8651 61.7925C28.4556 61.5387 29.0745 61.3566 29.7084 61.25C30.4026 61.1333 31.1201 61.1975 31.6217 60.8242C30.2859 58.9692 29.9126 59.0742 28.5592 56.4842C21.7867 43.575 32.3509 26.075 50.2534 30.4617C50.8367 30.03 52.1551 27.7433 51.8634 26.7167C51.1867 25.5967 49.8042 26.4542 48.6667 26.6467C44.8867 27.3058 45.8084 25.6842 45.8084 25.48C44.3092 24.4067 45.2251 24.3133 42.4892 24.5992C38.1821 25.0329 34.0781 26.6459 30.6284 29.261C27.1787 31.8761 24.5169 35.3918 22.9359 39.4217C22.5101 40.5242 23.3384 41.2358 23.3559 42.8342C23.3909 45.535 21.3784 47.3375 22.5684 49.8342C22.8834 50.4875 23.9509 51.7883 24.1667 52.4942C24.5517 53.7367 24.1084 54.6233 24.8201 56.1108C25.1467 56.7933 25.4034 56.6942 25.7301 57.33C25.9459 57.7967 26.1092 58.4267 26.3134 58.8933C26.7626 60.0017 27.1184 61.1217 27.8884 61.81L27.8651 61.7925Z" fill="#0061FF"/>
<path fill-rule="evenodd" clip-rule="evenodd" d="M33.5176 49.105C33.2437 46.0795 34.1815 43.069 36.1251 40.7342C37.2426 39.4016 38.631 38.3222 40.198 37.5679C41.7651 36.8135 43.4748 36.4015 45.2134 36.3592C45.5045 36.1378 45.7811 35.8982 46.0417 35.6417C46.4034 35.2742 46.8117 34.8308 47.2084 34.3758C47.7917 33.6292 48.3751 32.8242 48.9584 32.0425C48.0357 31.7077 47.0686 31.5111 46.0884 31.4592H45.4759C36.0726 31.4592 28.4542 38.8208 28.4542 47.9033C28.4625 50.1558 28.9416 52.3816 29.8608 54.438C30.78 56.4943 32.1189 58.3358 33.7917 59.8442C35.0226 59.1967 36.7609 57.4175 37.0292 56.4083C36.2709 55.1308 33.9142 53.6258 33.5292 49.1108L33.5176 49.105Z" fill="#0061FF"/>
<path fill-rule="evenodd" clip-rule="evenodd" d="M53.4849 33.3667C52.0616 34.3875 51.0699 35.7992 50.0374 37.2167C52.1991 38.0491 54.0607 39.512 55.3807 41.4156C56.7006 43.3191 57.4181 45.5754 57.4399 47.8917C57.4399 54.2617 52.0966 59.43 45.5049 59.43C43.6059 59.4351 41.732 58.9956 40.0332 58.1467C39.242 58.5167 38.5341 59.0436 37.9525 59.6954C37.371 60.3471 36.9278 61.1102 36.6499 61.9383C39.3334 63.5165 42.3917 64.3446 45.5049 64.3358C54.9024 64.3358 62.5266 56.9742 62.5266 47.8917C62.5052 44.8723 61.6494 41.9177 60.0537 39.3543C58.4581 36.791 56.1847 34.7187 53.4849 33.3667Z" fill="#0061FF"/>
<path fill-rule="evenodd" clip-rule="evenodd" d="M0.804172 25.1825C1.11917 25.1008 3.13751 23.0183 3.65084 22.5983C4.71868 21.747 5.87672 21.0154 7.10418 20.4167C9.8969 19.051 12.9921 18.421 16.0964 18.5863C19.2008 18.7517 22.2115 19.707 24.8433 21.3617C28.6992 23.73 29.7958 26.2442 30.6067 26.9383C31.3707 26.5951 32.1061 26.1913 32.8058 25.7308C33.5758 25.3167 34.3517 24.9958 35.0692 24.6633C34.69 23.3975 32.9808 21.5775 32.03 20.58C28.1876 16.6179 23.08 14.125 17.5925 13.5333C12.7917 12.985 6.37501 14.385 3.07917 16.7067C2.36167 17.2142 1.74917 19.5125 1.58001 20.5217C1.48667 21.105 1.58001 21.7525 1.46334 22.2717C1.24168 23.0592 0.716672 22.6625 0.804172 25.1883V25.1825Z" fill="#0061FF"/>
</g>
<defs>
<clipPath id="clip0_478_1675">
<rect width="261.917" height="70" fill="white" transform="translate(0.541626)"/>
</clipPath>
</defs>
</svg>
